<svg xmlns="http://www.w3.org/2000/svg" xmlns:xlink="http://www.w3.org/1999/xlink" viewBox="49.327 117.569 226.941 36.468">
  <defs>
    <style>
      .cls-1 {
        fill: #fff;
      }

      .cls-2 {
        filter: url(#logo-horizontal);
      }
    </style>
    <filter id="logo-horizontal" x="49.327" y="117.569" width="226.941" height="36.468" filterUnits="userSpaceOnUse">
      <feOffset dx="2" dy="2" input="SourceAlpha"/>
      <feGaussianBlur stdDeviation="3" result="blur"/>
      <feFlood flood-opacity="0.4"/>
      <feComposite operator="in" in2="blur"/>
      <feComposite in="SourceGraphic"/>
    </filter>
  </defs>
  <g class="cls-2" transform="matrix(1, 0, 0, 1, 0, 0)">
    <path id="logo-horizontal-2" data-name="logo-horizontal" class="cls-1" d="M53.341,18.468H53.32c-4.559,0-7.072-3.429-7.072-7.508,0-4.248,2.758-7.636,7.223-7.682h.087c4.738,0,7.138,3.516,7.138,7.44,0,4.691-2.786,7.69-7.225,7.75Zm-2.924-7.6c-.023,2.642,1.156,4.472,3.054,4.472l.045,0c1.9,0,3.012-1.833,3.012-4.5,0-2.529-1.136-4.453-3.057-4.453C51.574,6.4,50.417,8.321,50.417,10.873Zm-12.791,7.6H37.6c-4.559,0-7.073-3.429-7.073-7.508,0-4.248,2.758-7.636,7.225-7.682h.086c4.737,0,7.138,3.516,7.138,7.44,0,4.691-2.783,7.69-7.224,7.75Zm-2.926-7.6c-.022,2.636,1.158,4.472,3.056,4.472l.046,0c1.9,0,3.012-1.833,3.012-4.5,0-2.529-1.135-4.453-3.058-4.453C35.859,6.4,34.7,8.321,34.7,10.873ZM0,17.553.744,14.3a8.833,8.833,0,0,0,3.816.916c1.352,0,2.007-.457,2.007-1.2,0-.72-.655-1.117-2.312-1.685C1.767,11.442.11,10.09.11,7.91.11,5.311,2.315,3.3,6.022,3.3c4.019,0,3.7,2.4,3.142,3.908a8.225,8.225,0,0,0-3.184-.7c-1.2,0-1.858.437-1.858,1.087,0,.742.788,1.029,2.644,1.725,2.642.984,3.818,2.383,3.818,4.433,0,2.531-1.963,4.692-6.264,4.692A10.375,10.375,0,0,1,0,17.553Zm18.333-6.441c0-5.173,3.8-7.81,8.185-7.81,3.427,0,3.6,2.164,2.9,3.754a7.361,7.361,0,0,0-2.727-.525,3.964,3.964,0,0,0-4.213,4.32,3.975,3.975,0,0,0,4.3,4.321,8.13,8.13,0,0,0,2.621-.413l.543,3.08a9.429,9.429,0,0,1-3.688.607C20.755,18.445,18.333,15.023,18.333,11.111ZM61.878,18.14V3.735a30.2,30.2,0,0,1,4.648-.324c.319,0,.613,0,.9.009a8.224,8.224,0,0,1,3.6.711,3.235,3.235,0,0,1-.415,6.11v.04a3.642,3.642,0,0,1,2.879,3.579,3.965,3.965,0,0,1-1.657,3.233,8.133,8.133,0,0,1-4.406,1.256c-.509.037-1.064.056-1.659.056A21.866,21.866,0,0,1,61.878,18.14Zm3.9-2.663a7.967,7.967,0,0,0,1.14.045c.167,0,.336-.01.5-.026,1.076-.123,1.921-.668,1.921-1.809,0-1.039-.8-1.543-1.921-1.684a5.865,5.865,0,0,0-.7-.037h-.942Zm0-9.143V9.171h.788a5.974,5.974,0,0,0,.854-.06c1.1-.173,1.635-.7,1.635-1.469s-.541-1.294-1.635-1.38c-.112-.009-.231-.019-.353-.019A7.28,7.28,0,0,0,65.782,6.334ZM12.5,18.228V3.525c2.949,0,3.949.554,3.949,2.4v12.3Zm183.344-7.707c0-4.549,2.806-7.524,6.631-7.524,3.932,0,6.461,3,6.461,7.269,0,4.91-3,7.546-6.652,7.546C198.483,17.812,195.849,14.857,195.849,10.521Zm1.954-.042c0,3.082,1.658,5.823,4.591,5.823s4.592-2.7,4.592-5.951c0-2.869-1.488-5.845-4.569-5.845S197.8,7.354,197.8,10.479Zm-62.572.063a7.118,7.118,0,0,1,7.482-7.524,7.76,7.76,0,0,1,3.4.638l-.468,1.509a6.568,6.568,0,0,0-2.87-.595c-3.358,0-5.59,2.147-5.59,5.909,0,3.528,2.019,5.761,5.484,5.761a7.427,7.427,0,0,0,3.039-.6l.363,1.489a9.11,9.11,0,0,1-3.783.68C138.251,17.812,135.231,15.261,135.231,10.542Zm-14.388-.021c0-4.549,2.806-7.524,6.632-7.524,3.932,0,6.461,3,6.461,7.269,0,4.91-3,7.546-6.653,7.546C123.478,17.812,120.843,14.857,120.843,10.521Zm1.954-.042c0,3.082,1.658,5.823,4.592,5.823s4.591-2.7,4.591-5.951c0-2.869-1.487-5.845-4.568-5.845S122.8,7.354,122.8,10.479Zm-24.569.063a7.118,7.118,0,0,1,7.481-7.524,7.757,7.757,0,0,1,3.4.638l-.468,1.509a6.557,6.557,0,0,0-2.868-.595c-3.359,0-5.591,2.147-5.591,5.909,0,3.528,2.02,5.761,5.484,5.761a7.427,7.427,0,0,0,3.039-.6l.364,1.489a9.12,9.12,0,0,1-3.785.68C101.247,17.812,98.228,15.261,98.228,10.542Zm70.288,6.994V3.464h0a23.79,23.79,0,0,1,3.933-.319c2.657,0,4.549.638,5.8,1.786a6.535,6.535,0,0,1,2.039,5.144,7.656,7.656,0,0,1-2.062,5.569c-1.36,1.339-3.571,2.062-6.355,2.062A29.367,29.367,0,0,1,168.516,17.536ZM170.365,4.8V16.132a15.136,15.136,0,0,0,1.87.086c3.975,0,6.1-2.211,6.1-6.08.021-3.379-1.892-5.526-5.8-5.526A10.5,10.5,0,0,0,170.365,4.8Zm19.426,12.775V4.825h-4.357V3.252H196.04V4.825h-4.378V17.578Zm-7.568,0V3.252h1.871V17.578Zm-23.464,0V3.252h7.759V4.8H160.63V9.331h5.548v1.53H160.63v5.166h6.206v1.551Zm-64.314,0V3.252h1.87V17.578Zm60.7,0a18.042,18.042,0,0,1-.934-3.422c-.427-1.977-1.212-2.722-2.892-2.785h-1.742v6.206h-1.85V3.443h0a21.516,21.516,0,0,1,3.551-.3,5.932,5.932,0,0,1,4.145,1.169,3.657,3.657,0,0,1,1.127,2.742,3.761,3.761,0,0,1-2.678,3.635v.063a3.592,3.592,0,0,1,2.083,2.891,22.978,22.978,0,0,0,1.105,3.932ZM149.578,4.74V9.969h1.892c1.977,0,3.23-1.085,3.23-2.722,0-1.849-1.339-2.657-3.294-2.657A8.056,8.056,0,0,0,149.578,4.74ZM118.143,17.577a18.064,18.064,0,0,1-.936-3.422c-.424-1.977-1.211-2.722-2.891-2.785h-1.742v6.206h-1.849V3.443h0a21.513,21.513,0,0,1,3.55-.3,5.937,5.937,0,0,1,4.146,1.169,3.659,3.659,0,0,1,1.126,2.742,3.761,3.761,0,0,1-2.679,3.635v.063a3.6,3.6,0,0,1,2.084,2.891,22.719,22.719,0,0,0,1.105,3.932ZM112.575,4.74V9.969h1.893c1.976,0,3.231-1.085,3.231-2.722,0-1.849-1.34-2.657-3.3-2.657A8.068,8.068,0,0,0,112.575,4.74ZM90.28,17.577l-.34-6.29c-.105-2-.234-4.421-.234-6.186h-.041c-.51,1.658-1.084,3.465-1.807,5.441l-2.529,6.952h-1.4l-2.338-6.825C80.907,8.628,80.355,6.8,79.95,5.1h-.041c-.042,1.786-.148,4.166-.276,6.333l-.382,6.143H77.486l1-14.326h2.359l2.444,6.929c.595,1.764,1.063,3.338,1.445,4.825h.041c.383-1.445.894-3.019,1.53-4.825l2.551-6.929h2.359l.893,14.326Zm71.327-15.09L163.584,0h2.253l-2.721,2.487Z" transform="translate(56.33 124.57)"/>
  </g>
</svg>
